<?xml version="1.0" encoding="utf-8"?>
<!-- Generator: Adobe Illustrator 22.1.0, SVG Export Plug-In . SVG Version: 6.00 Build 0)  -->
<svg version="1.1" id="Layer_1" xmlns="http://www.w3.org/2000/svg" xmlns:xlink="http://www.w3.org/1999/xlink" x="0px" y="0px"
	 viewBox="0 0 442 762.3" style="enable-background:new 0 0 442 762.3;" xml:space="preserve">
<style type="text/css">
	.st0{fill:#0A6466;}
</style>
<g transform="translate(0.000000,1080.000000) scale(0.100000,-0.100000)">
	<path class="st0" d="M2040,10724c-961.3-206.6-1487.3-1200.7-1535.2-2102.8c-19.5-366.9-3.5-743.5,70.9-1104.5
		c49.7-240.9,122.3-481.4,216.7-708.6c19.2-46.3,293.7-566,284.6-575.1c-234.2-117.1-518.6-53.2-740-222
		c-122.6-93.4-215.4-237.6-244.8-388.9C7.7,5187.3,77.3,4679.8,77,4241c-0.1-168.8-54.3-415,60.3-519.9
		c66.9-61.2,211.5-109.5,292.7-144.1c92.7-39.6,719.1-289.8,751-242c44.2,29.5,425.9-72.4,491-81c151.8-20,301.1-26.3,454.9-27.4
		c180.1-1.2,361.9-3.2,541.4,13.3c109.1,10.1,516.2,144.7,590.7,95c8.3-12.4,400.7,99.8,437,127c41.7,55.6,270.1,103.8,338,131.6
		c80.8,33,158.9,63.8,234.7,111.4c116.9,73.5,97.5,59,98.7,216.7c4.2,567.7-0.6,1135.6-2.4,1703.3
		c-130.4,353.5-370.4,473.5-720.2,548.5c-68.3,14.6-242.3,24.8-282.8,80c-31.7,43.2-9,185.8-9.6,232.6
		c-6.3,508.5-2.4,1017.3-2.4,1525.9c182.6,0.4,395.4,572.4,228,684c-2-4-4-8-6-12c-89.8,59.9-103.8,86.6-75.7,208.9
		c45.9,199.7,50.1,422.6,15.9,624.6C3473,9749.2,3058,10711.8,2791,10147C2713.1,10533.8,2461.5,10815.4,2040,10724z"/>
</g>
</svg>
