<?xml version="1.0" encoding="utf-8"?>
<!-- Generator: Adobe Illustrator 22.1.0, SVG Export Plug-In . SVG Version: 6.00 Build 0)  -->
<svg version="1.1" id="Layer_1" xmlns="http://www.w3.org/2000/svg" xmlns:xlink="http://www.w3.org/1999/xlink" x="0px" y="0px"
	 viewBox="0 0 448.1 799.8" style="enable-background:new 0 0 448.1 799.8;" xml:space="preserve">
<style type="text/css">
	.st0{fill:#0A6466;}
</style>
<g transform="translate(0.000000,1080.000000) scale(0.100000,-0.100000)">
	<path class="st0" d="M2170.1,10722.9c-187.3-59.9-210.1-236-178.3-419.6c15.9-92,45.6-206.6,88.3-273.4c32.6-50.9,40.2-41.9,9-74
		c-27.9-28.8-87.5-46.4-124-65c-208.9-106.5-455-246.2-590.4-443.2C1264.1,9286.8,1168.7,9142,1100,8962
		c-152.5-399.6-161.6-833.7-184.1-1256c-23.8-447.5-86.5-889.2-172.6-1328.8c-28.9-147.4-69.8-291.9-102.8-438
		c-12.5-55.3-19-158.9-60.3-202.2c-15.2-16-63.5-18.9-83.3-28.5c-29-14-53.2-36.1-82.1-52.8C220,5543.3,131.4,5361,106.1,5145.7
		c-21.8-185.5-5.2-383.5-5.7-569.8c-0.7-294.5-0.9-589.1,0.3-883.6c0.4-94.8-24.2-236,6-328.2c16.2-49.6,40.3-56.2,93.4-84.2
		c435.3-229.1,939.8-356.1,1445.9-431.3c671.7-99.7,1405.1-38.4,2034.1,171.3c106.6,35.5,214.3,75.9,320,110
		c85.6,27.6,158.7,76.6,240,110c145.4,59.8,152,48.1,156.7,217.7c13.9,499,5.4,999.8,1.5,1498.9c-1.8,235.7,5.9,457.5-184.5,624.3
		c-40.7,35.6-97.1,56.7-131.7,93c-58.4,61.3-55.5,190.9-75.5,271.2c-34.3,137.5-75.8,274.7-112.7,411.8
		c-88.6,329.2-151.5,642-164.3,984.4c-16.9,451.7-62.8,901.8-163.4,1343.6c-50.9,223.5-110.9,486.3-233.9,682.7
		c-85.1,136-205.2,255.6-332.7,348.2c-66,48-114.7,74.3-188.4,108.1c-61.2,28-122,55-185.8,76.6c-43.6,14.8-171.9,23-202.2,53.4
		c-0.9,0.7,92.4,36,102,40.1c72.4,31,147.7,76.7,213.7,119.8c103.4,67.6,246.2,173.2,198.5,313.7
		C2853.9,10672.7,2396.2,10803.4,2170.1,10722.9z"/>
</g>
</svg>
