<?xml version="1.0" encoding="utf-8"?>
<!-- Generator: Adobe Illustrator 22.1.0, SVG Export Plug-In . SVG Version: 6.00 Build 0)  -->
<svg version="1.1" id="Layer_1" xmlns="http://www.w3.org/2000/svg" xmlns:xlink="http://www.w3.org/1999/xlink" x="0px" y="0px"
	 viewBox="0 0 500 740.4" style="enable-background:new 0 0 500 740.4;" xml:space="preserve">
<style type="text/css">
	.st0{fill:#0A6466;}
</style>
<g transform="translate(0.000000,1080.000000) scale(0.100000,-0.100000)">
	<path class="st0" d="M2680.1,10719.9c0,8.4-425.5-90.8-470-105c-134.6-42.9-263.9-109.6-388-185c-292.7-177.8-514.7-460.5-552-800
		c-20.3-185.3,11.1-379.8-65-550c-90.1-201.5-217.7-346.3-369.1-504.8c-72.7-76.1-124.4-130.2-135.2-235.2
		c-14.9-144.9,44.2-158.8,151-212.7c95-48,343.2-119.3,308.4-253.3c-17.3-66.8-206-153.8-165-208.7c40.8-54.7,221.2,5.5,276.3,27.8
		c74.6,30.2,228.7,195.2,205.9,31.8c-14.3-102.5-79.8-157.6-77.3-274.9c68.4,0,129.7,4.9,194.9,17.3c31.1,5.9,156.4,48.4,180.1,42.8
		c62-14.8,153-157.7,195-200c43-43.3,86.7-86,130-129c0.9-120.9,9.2-317-24.3-427.5c-40.6-133.7-153.7-144.4-268.2-169.9
		c-206.4-46-414.6-88.4-621.6-135c-183.8-41.4-377.1-62.2-543.9-158.6c-207.4-119.9-368.3-299.4-477-510
		c-108.6-210.5-105-422.2-105-661c81.6-93.1,181-111.6,300-109c0-199.4,0-398.8,0-598.2c0-138.5-61.3-396,60-481.8
		c114-80.7,282.2-128.1,410-180c116.2-47.2,241.3-91.4,364.1-121.4c409.2-99.8,813.8-177,1249.8-178.5
		c464.9-1.6,912.4,47,1350.2,166.5c138.8,37.9,284.9,84.6,417.3,136.6c131.8,51.8,352.3,121.2,448.6,225.9c0,370.3,0,740.7,0,1111
		c320.6-22.6,280.3,309.2,210,520c-66.5,199.5-181.3,382.7-335.5,535.5c-169.4,167.8-340.4,221.8-562,266.1
		c-216.1,43.2-431.1,92.2-646.6,140c-116.9,25.9-301.2,28.1-355.9,158.4c-48.7,116-30,341.7-30,470c70,70,140.4,141.3,220,200
		c72.6,53.5,52.7,30.9,114.3,34.7c59.9,3.8,167.7-32.4,220.6,4.8c39.3,27.6,65.4,430.5,115.2,430.5c-4.8,0,48.5-155.9,55-170
		c35.2-76.3,98.2-183.3,195-170c14.9,162.8-134.7,272.6-40,435c126.1,216.2,394.8,262.8,560,435c1.5,152.1-20.9,220.5-150,310
		c-121.5,84.3-260.5,153.7-347.3,277.5c-67.7,96.5-67.7,148.6-12.7,247.5c71,127.7,193.9,251.9,110,410c-55,103.7-171.4,105-260,155
		c-72.4,40.9-60.5,13.1-8.6,93.6c36.5,56.7,66.6,108.6,91.8,168c106.1,251.1-22,444.3-253.1,553.4c-99.8,47.1-197,78.4-304.1,101.6
		C3173.6,10712.1,2680.1,10760.5,2680.1,10719.9z"/>
</g>
</svg>
