<?xml version="1.0" encoding="utf-8"?>
<!-- Generator: Adobe Illustrator 22.1.0, SVG Export Plug-In . SVG Version: 6.00 Build 0)  -->
<svg version="1.1" id="Layer_1" xmlns="http://www.w3.org/2000/svg" xmlns:xlink="http://www.w3.org/1999/xlink" x="0px" y="0px"
	 viewBox="0 0 681.6 693.9" style="enable-background:new 0 0 681.6 693.9;" xml:space="preserve">
<style type="text/css">
	.st0{fill:#0A6466;}
</style>
<g transform="translate(0.000000,1080.000000) scale(0.100000,-0.100000)">
	<path class="st0" d="M3210,10747.3c0,5-302.2-64.4-331-72.8c-80-23.2-156.7-61.1-229-97.3c-71.5-35.7-161.5-76.4-215.3-146.9
		c-23.5-30.8-38.8-61.2-54.7-93.1c-24.3-48.7-27.5-108.8-70-150c-140.3-133.9-104.4-386.6-98.1-565.4
		c2.8-80.4,12.3-167.4,28.1-244.6c10.8-53.1,14.8-49.3-36-60c-55.9-11.8-74.8-26-86.4-83.2c-37.8-186.1,7.1-376.4,106.6-522.1
		c38-55.7,38.7-132.7,84.5-184.3c38.9-43.8,90.3-23.2,121.3-74.5c23.7-39.2,26.6-91.2,40-136c24-79.9,44.7-162.1,83.1-234.1
		c17-31.9,41.1-70.1,62.8-101.3c25-36,35.2-25.5,21.2-67.3c-6-17.9-43.6-65.4-57.1-77.3c-44.9-42.1-74.6-109.2-100-160
		c-24-48-55.6-96-83.4-142.9c-24.4-41.2-40.9-84.3-66.6-127.1c-32.5-54.2-80.8-102-126.9-146.2
		c-157.2-151.2-366.7-246.1-564.1-306.5c-115.3-35.3-223-84.2-340-120c-114.7-35.1-225.9-85-340-120c-119.2-36.5-241.1-78.6-360-120
		c-98.8-34.4-185-83.2-264-162.3c-98.5-98.5-142.2-205.2-175-335c-17.7-70.1-46-140.4-66.9-208.6C70.9,5816,15.5,5683.9,80,5619.3
		c25.9-29.2,42.7-62.5,70-91c34-34,55.7-75.7,90-110c79.1-82,151.6-170.7,233-252c76.5-76.3,162.4-143.4,238-219
		c34.7-33.5,76.1-56.1,110-90c44.3-42.3,109.4-65.1,149-110c34.5-36.8,94.9-71.4,137.3-97.1c36.2-21.9,72.8-51,107.9-69.8
		c23.1-12.4,196.4-124,203.8-118.1c5,3,16-2,24-10c38.5-34.2,102.5-52.7,147-75c51.6-25.8,108.3-44.1,160-70
		c115.4-57.7,252.5-107.8,380-140c159.3-40.3,316.5-92.1,479-127c148.3-31.9,303.5-37.9,454.2-57.7c118.8-15.6,246.4-5.4,365.8-5.3
		c110.3,0.1,228.9-9.5,338.6,6.1c153,21.7,306.6,33.7,458.3,61.3c291.7,53,591,146.5,850,269.9c59.3,28.3,120.1,46.2,177.1,76.4
		c52.6,27.9,107.2,52.8,159.7,80c68.1,35.3,130.9,78.7,197.4,116.4c73.8,41.9,179.9,95.9,240,160c39.9,45.2,104.6,67.5,149,110
		c91.7,91.7,202.9,165.5,296.6,257.6c96.1,94.4,181.4,197.6,274.4,293.4c37.6,37.6,62.9,82.9,100,120c21.5,22.5,35.3,61,60,79
		c54.9,38.7,5.1,173.8-6.4,224.1c-17.5,76.9-45.9,149-63.6,225.9c-30.9,134.3-71.8,273.5-175,375
		c-84.3,84.3-149.6,104.6-249.1,148.1c-79.1,34.6-170.7,69.8-254.5,94.1c-183.2,53.1-361.6,118.4-541.4,182.8
		c-86.2,30.9-170.7,72.5-258.6,97.3c-44.3,12.5-83.5,24.9-124.3,41.4c-39.5,15.9-85.1,24.2-121.8,47.3
		c-166,103.9-365.8,205.1-465.3,394.1c-40.9,77.7-78.1,154.9-122.8,234.8c-16.8,30-37.3,60.5-54.1,90.5
		c-25.1,44.9-60.7,133.9-103.1,164.8c-32.3,23-2.6,98.1,0.4,133.9c3.6,44.4,20.7,63,33.3,100.6c31.4,94,41.1,194.8,72.9,289.6
		c21.4,63.6,56.5,28.5,111.8,50.1c44.5,17.4,46.4,51.6,64.7,89.9c12.5,25.9,26.6,53.3,40,80c11,21.9,36.1,80.8,56.9,95.9
		c35.8,23.8,66.4,174.5,72.4,213c11.8,75.7,23.9,184.2-2.4,257c-9.7,26.8-33.6,56.1-57.6,75c-48.5,38.1-53.3,37-42.4,105
		c11.9,74.1,26.1,155.4,29.2,231.1c7.3,177.7,41,349.5-19.2,518.9c-19.5,54.9-45,104.5-82.1,152.8
		c-46.4,60.5-108.3,94.3-157.9,147.2c-46.6,52.8-140.1,90.1-200,120c-69.6,34.8-148.8,68.1-225.9,88.6c-58,15.4-117,24.2-174.1,41.4
		c-61.2,18.4-121.4,14.6-185.9,24.3C3491.1,10746.6,3210,10776.6,3210,10747.3z"/>
</g>
</svg>
