<?xml version="1.0" encoding="utf-8"?>
<!-- Generator: Adobe Illustrator 22.1.0, SVG Export Plug-In . SVG Version: 6.00 Build 0)  -->
<svg version="1.1" id="Layer_1" xmlns="http://www.w3.org/2000/svg" xmlns:xlink="http://www.w3.org/1999/xlink" x="0px" y="0px"
	 viewBox="0 0 448.1 739.7" style="enable-background:new 0 0 448.1 739.7;" xml:space="preserve">
<style type="text/css">
	.st0{fill:#0A6466;}
</style>
<g transform="translate(0.000000,1080.000000) scale(0.100000,-0.100000)">
	<path class="st0" d="M2170.1,10709.9c0,17-346.3-75.9-384-90c-149.5-56-292.3-130.4-409.9-239.5
		c-172.1-159.7-321.9-398.4-359.5-628.1c-27.1-165.8-6.7-332,43.3-487.4c22.9-71,39.4-135.4,34.7-213.4
		c-5.2-87.1-30.8-80.3-93.4-147.2c-125.9-134.5-76.7-346.5-2.3-490.1c45.5-87.8,74.4-141.5,141.9-210.3
		c57.5-58.7,65.4-95.1,90.6-171.3c101-305.3,305.7-745.7,605.4-894.8c-5.2-143.5,25-392-44.5-519.3c-42.6-78-146.1-82.1-222.6-99
		c-317.6-70.2-635.6-127.7-948.7-198.5C-80.2,6162.5,90.2,5350.2,90.1,4813.2c0-297.1,0-594.2,0-891.3c126.6-21,248-120.9,369-171.5
		c84.5-35.4,157.1-60.4,240.4-89.4c292.4-101.8,583.1-175.5,890.6-216.1c724.7-95.9,1442.4-27,2124.3,189.7
		c93.3,29.6,176.2,69,258.7,102.3c128.2,51.8,284.1,163.1,417,186c0,574.3,10.6,1150-4.9,1724.1c-5.5,204-51.3,369.1-205.7,511.1
		c-162.5,149.3-368,177.7-575.3,220.3c-111.9,23-223.3,43.3-336.3,63.6c-120.6,21.7-241,51.2-360.5,78.3
		c-48.2,10.9-121.1,16.6-160.7,50.4c-96.9,82.5-66,317.7-74.3,432.2c-11.7,161,78.1,194.1,182.5,295.5
		c167.5,162.7,301.9,345.2,395.3,556.6c38.4,87,55.9,252,119.3,322.4c55,61.1,114.8,81.3,156.9,165.8
		c27.3,54.8,62.7,115.6,82.1,173.8c24.5,73.5,33.7,170,19.4,246.9c-14.6,78.3-75.1,108.4-107.6,171.1
		c-50.5,97.3,27.9,257.8,43.6,373.8c26.8,197.7,35.4,399.9,25,602c-2.2,42.6,3.7,107.4-29.5,141.7c-83.5,86-146.4-39.9-216.5-50.7
		c20.7,3.2,27.7,158.8,27.2,179.5c-1.9,79.8-19.2,159.5-61.8,227.7c-70.5,112.9-203.2,185.1-325.9,228.1
		C2884.9,10671,2170.1,10789.7,2170.1,10709.9z"/>
</g>
</svg>
