<?xml version="1.0" encoding="utf-8"?>
<!-- Generator: Adobe Illustrator 22.1.0, SVG Export Plug-In . SVG Version: 6.00 Build 0)  -->
<svg version="1.1" id="Layer_1" xmlns="http://www.w3.org/2000/svg" xmlns:xlink="http://www.w3.org/1999/xlink" x="0px" y="0px"
	 viewBox="0 0 449.6 759.9" style="enable-background:new 0 0 449.6 759.9;" xml:space="preserve">
<style type="text/css">
	.st0{fill:#0A6466;}
</style>
<g transform="translate(0.000000,1080.000000) scale(0.100000,-0.100000)">
	<path class="st0" d="M2015.1,10694.9c-89.5-55.9-269.8-55.1-376-105c-96.3-45.2-161.6-88.1-227-138
		c-175.4-133.7-278.6-277.2-334-504c-76.4-312.7-74.7-640.9-54-962c12.2-188.8-84.5-250.6-88-436c-3.3-176.3,80.8-314.2,175-446
		c-3.7-2.8-7.7-5.2-12-7c21.1-37,79.8-19.6,102.4-54.5c26.9-41.5,27.5-111.7,43.6-157.5c29.1-82.6,66.5-166.7,105-245
		c65.7-133.6,142-254.6,228.5-363c108.1-135.5,262.6-222.3,250-445c-5.6-97.9,5.8-198-75.1-249.5c-83.2-52.9-258.6-20.1-358.4-66.5
		c-87.8-40.8-75.9-92.6-140.7-154.1c-69.3-65.8-205.7-76-312.3-98.9c-225.1-48.4-460.3-66.4-639-226
		C137.5,5889,101.3,5721.6,98.1,5511.1c-7.7-505.1-7.7-1011.2-1.5-1516.4c2.5-208.2-19-215.3,168.6-304.8
		c164.5-78.5,331.8-142.3,505-200c463.2-154.4,933.6-225.1,1425-225c497.4,0.1,970,65.2,1440,210
		c189.3,58.3,668.9,172.8,754.7,355.4c54.6,116.3,4.6,388.7,4.6,508.5c0,332.6,0.6,665.1-2,997.7c-2.3,285.9-19.8,597.8-292.3,763.4
		c-246.9,150-656.7,86.9-849,279c-61.6,61.6-91.9,110.6-174,142.3c-89.5,34.4-232.4,6.9-309.1,45.9
		c-86.5,43.9-78.7,141.4-82.9,242.9c-13.4,0-16.8,188.4-11.5,201c20.1,48,84.2,77.2,124,108c38.2,29.5,78.7,65.6,99.5,86.5
		c106.9,107.5,208.9,252.2,283,379.5c74.8,128.6,93.1,301.4,171,423c98.6,154,225.8,226.3,269.1,424.6
		c43.5,199.5-80.3,314.5-84.1,492.4c-2.1,97.3,21.1,202.9,25.4,301.2c9.5,215.7,68.7,515.2-26.4,717.8
		c-92.2,196.4-324.4,274.3-476,409c-106.3,94.5-196.4,182.1-330,243C2580.8,10663.5,2182.5,10802,2015.1,10694.9z"/>
</g>
</svg>
