<?xml version="1.0" encoding="utf-8"?>
<!-- Generator: Adobe Illustrator 22.1.0, SVG Export Plug-In . SVG Version: 6.00 Build 0)  -->
<svg version="1.1" id="Layer_1" xmlns="http://www.w3.org/2000/svg" xmlns:xlink="http://www.w3.org/1999/xlink" x="0px" y="0px"
	 viewBox="0 0 448.1 752.4" style="enable-background:new 0 0 448.1 752.4;" xml:space="preserve">
<style type="text/css">
	.st0{fill:#0A6466;}
</style>
<g transform="translate(0.000000,1080.000000) scale(0.100000,-0.100000)">
	<path class="st0" d="M3260.1,10689.9c0-86.3,51.8-153,33.9-242.9c-8.8-44.4-71.2-190.1-129.9-177.6c19.6-4.2,55.7,185.9,55.9,213.5
		c0.3,35.3,9.4,100.4-8.7,131.8c-35.6,61.6-49.7,28.1-72.6-5.3c-46.2-67.5-62.9-151.7-137.8-207.2c-58.9-43.7-122.4-52.6-195.8-51.3
		c104.2,43.2,199.1,121.8,195,239c-103.4,3-165.3-51.8-257.7-90.7c-29.3-12.3-282.3-67.7-282.3-40.3c0,1.1,158.2,48.8,177.4,57
		c82.3,35.3,162.3,57.1,163.6,154c-292.1,0-551.1-15.6-808.6-147.6c-154.9-79.4-297.2-204.7-381.1-356.7
		c-58.3-105.6-98.5-191.5-188.6-285.5c-127.2-132.8-214.3-255.7-278.6-417.8c-21.3-53.7-47.2-109.2-61-164.2
		c-26.7-106.1-18.3-221.2-44.4-326.4c-18.9-76-89.1-128.3-108.7-206.9c-23.8-95.3-10.9-202.4,22.5-292c24.8-66.6,62.5-145,97.5-203
		c17.5-29,36.6-54.4,64.8-74.6c44-31.5,64.7-29.1,88.3-78.2c52.2-108.2,85.6-233.6,136.9-347.3c49.5-109.8,119.3-230.4,191.5-337
		c77.5-114.5,206-191.9,285.3-297.5c45.3-60.3,13.3-176.6,0.5-247.9c-12.4-69.5-38.8-142-60-208.6c-22.7-71.4-25.6-124.1-101.3-149
		c-86.1-28.3-177.6-36.7-266-60c-165.6-43.7-341.9-80.7-510-110c-165-28.8-349.3-54.4-495.2-146.4
		c-123.6-78-208.5-193.4-261.7-319.9C77.7,5785.2,84.5,5661,83,5541.8c-2.9-245.3-2.9-490.6-2.9-735.8c0-301.4,0-602.8,0-904.1
		c997.8-547.4,2217.7-665.2,3324.9-393.6c341,83.7,660.2,220.6,975.1,372.6c0,456.7,0.8,913.4-0.5,1370.1
		c-0.6,195.4,40.7,454.5-29.5,638.9c-73.2,192.2-237.2,334.2-428.8,397.5c-118.4,39.1-249.6,49.6-371.2,82.5
		c-130.9,35.4-265.6,54.9-398.3,83.1c-61.2,13-123.5,31.9-185.9,43.4c-72.2,13.3-127.8,8.1-165.9,78.4c-41.9,77.5-63.4,171.8-90,255
		c-31.5,98.4-63.5,243-1.8,325.1c55.9,74.3,158.1,131.3,223.7,200.6c58.4,61.6,114.6,129.5,163,199.3
		c87.6,126.2,156.1,275.1,206.4,420.8c18.6,53.9,23.5,133.9,62.8,175.7c35.8,38.1,88.3,43.3,124.6,91.3
		c49.6,65.7,87.9,166,114.4,242c21.9,62.7,39.1,121.2,36.5,193.5c-2.5,70.1-27,126-55.5,189.7c-35.2,78.9-25.1,162.4-25.6,256.1
		c-1.5,254.3-133.8,536.7-319.5,714.9c99.9,102.3,203.8,230.5,240,369.2c29.3,112.2,25.6,250.8-25.3,356.4
		C3435.5,10602.5,3260.1,10821.6,3260.1,10689.9z"/>
</g>
</svg>
